<mxfile host="app.diagrams.net" agent="Mozilla/5.0 (Windows NT 10.0; Win64; x64) AppleWebKit/537.36 (KHTML, like Gecko) Chrome/129.0.0.0 Safari/537.36 Edg/129.0.0.0" version="24.7.17" pages="2">
  <diagram name="Page-1" id="Ogx33FmWnQKGVhr2AEK4">
    <mxGraphModel dx="1705" dy="464" grid="1" gridSize="10" guides="1" tooltips="1" connect="1" arrows="1" fold="1" page="1" pageScale="1" pageWidth="850" pageHeight="1100" math="0" shadow="0">
      <root>
        <mxCell id="0" />
        <mxCell id="1" parent="0" />
        <mxCell id="hbjcIojzbU_kD2nZdJwd-2" value="SALES&lt;div&gt;sales_id&lt;/div&gt;&lt;div&gt;order_id&lt;/div&gt;&lt;div&gt;quantity&lt;/div&gt;&lt;div&gt;total_price&lt;/div&gt;" style="whiteSpace=wrap;html=1;aspect=fixed;" parent="1" vertex="1">
          <mxGeometry x="601" y="333" width="149" height="149" as="geometry" />
        </mxCell>
        <mxCell id="hbjcIojzbU_kD2nZdJwd-10" value="CUSTOMER&lt;div&gt;customer_id&lt;/div&gt;&lt;div&gt;fist_name&lt;/div&gt;&lt;div&gt;email&lt;/div&gt;&lt;div&gt;phone_number&lt;/div&gt;&lt;div&gt;address_id&lt;/div&gt;" style="whiteSpace=wrap;html=1;aspect=fixed;" parent="1" vertex="1">
          <mxGeometry x="80" y="70" width="140" height="140" as="geometry" />
        </mxCell>
        <mxCell id="hbjcIojzbU_kD2nZdJwd-12" value="DATE&lt;div&gt;date_id&lt;/div&gt;&lt;div&gt;date&lt;/div&gt;&lt;div&gt;year&lt;/div&gt;&lt;div&gt;month&lt;/div&gt;&lt;div&gt;day&lt;/div&gt;&lt;div&gt;quater&lt;/div&gt;" style="whiteSpace=wrap;html=1;aspect=fixed;" parent="1" vertex="1">
          <mxGeometry x="345" y="446" width="140" height="140" as="geometry" />
        </mxCell>
        <mxCell id="hbjcIojzbU_kD2nZdJwd-13" value="EMPLOYEE&lt;div&gt;employee_id&lt;/div&gt;&lt;div&gt;first_name&lt;/div&gt;&lt;div&gt;last_name&lt;/div&gt;&lt;div&gt;position&lt;/div&gt;&lt;div&gt;salary&lt;/div&gt;&lt;div&gt;hire_date&lt;/div&gt;" style="whiteSpace=wrap;html=1;aspect=fixed;" parent="1" vertex="1">
          <mxGeometry x="76" y="318" width="140" height="140" as="geometry" />
        </mxCell>
        <mxCell id="hbjcIojzbU_kD2nZdJwd-14" value="ORDER&lt;div&gt;order_id&lt;/div&gt;&lt;div&gt;customer_id&lt;/div&gt;&lt;div&gt;employee_id&lt;/div&gt;&lt;div&gt;total_amount&lt;/div&gt;" style="whiteSpace=wrap;html=1;aspect=fixed;" parent="1" vertex="1">
          <mxGeometry x="320" y="140" width="140" height="140" as="geometry" />
        </mxCell>
        <mxCell id="hbjcIojzbU_kD2nZdJwd-15" value="&lt;div&gt;BOOK&lt;/div&gt;&lt;div&gt;book_id&lt;/div&gt;&lt;div&gt;title&lt;/div&gt;&lt;div&gt;genre&lt;/div&gt;&lt;div&gt;price&lt;/div&gt;&lt;div&gt;stock_quantity&lt;/div&gt;&lt;div&gt;publisher&lt;/div&gt;" style="whiteSpace=wrap;html=1;aspect=fixed;" parent="1" vertex="1">
          <mxGeometry x="601" y="66" width="140" height="140" as="geometry" />
        </mxCell>
        <mxCell id="hbjcIojzbU_kD2nZdJwd-18" value="" style="endArrow=none;html=1;rounded=0;" parent="1" edge="1">
          <mxGeometry width="50" height="50" relative="1" as="geometry">
            <mxPoint x="222" y="116" as="sourcePoint" />
            <mxPoint x="250" y="116" as="targetPoint" />
          </mxGeometry>
        </mxCell>
        <mxCell id="hbjcIojzbU_kD2nZdJwd-19" value="" style="endArrow=none;html=1;rounded=0;" parent="1" edge="1">
          <mxGeometry width="50" height="50" relative="1" as="geometry">
            <mxPoint x="250" y="211" as="sourcePoint" />
            <mxPoint x="324" y="210" as="targetPoint" />
          </mxGeometry>
        </mxCell>
        <mxCell id="hbjcIojzbU_kD2nZdJwd-20" value="" style="endArrow=none;html=1;rounded=0;" parent="1" edge="1">
          <mxGeometry width="50" height="50" relative="1" as="geometry">
            <mxPoint x="251" y="212" as="sourcePoint" />
            <mxPoint x="251" y="117" as="targetPoint" />
          </mxGeometry>
        </mxCell>
        <mxCell id="hbjcIojzbU_kD2nZdJwd-21" value="1" style="text;html=1;align=center;verticalAlign=middle;resizable=0;points=[];autosize=1;strokeColor=none;fillColor=none;" parent="1" vertex="1">
          <mxGeometry x="215" y="88" width="30" height="30" as="geometry" />
        </mxCell>
        <mxCell id="hbjcIojzbU_kD2nZdJwd-22" value="many" style="text;html=1;align=center;verticalAlign=middle;resizable=0;points=[];autosize=1;strokeColor=none;fillColor=none;" parent="1" vertex="1">
          <mxGeometry x="295" y="188" width="50" height="30" as="geometry" />
        </mxCell>
        <mxCell id="hbjcIojzbU_kD2nZdJwd-24" value="" style="endArrow=none;html=1;rounded=0;" parent="1" edge="1">
          <mxGeometry width="50" height="50" relative="1" as="geometry">
            <mxPoint x="530" y="406" as="sourcePoint" />
            <mxPoint x="530" y="190" as="targetPoint" />
          </mxGeometry>
        </mxCell>
        <mxCell id="hbjcIojzbU_kD2nZdJwd-25" value="" style="endArrow=none;html=1;rounded=0;" parent="1" edge="1">
          <mxGeometry width="50" height="50" relative="1" as="geometry">
            <mxPoint x="530" y="406" as="sourcePoint" />
            <mxPoint x="600" y="406" as="targetPoint" />
          </mxGeometry>
        </mxCell>
        <mxCell id="hbjcIojzbU_kD2nZdJwd-26" value="" style="endArrow=none;html=1;rounded=0;" parent="1" edge="1">
          <mxGeometry width="50" height="50" relative="1" as="geometry">
            <mxPoint x="460" y="191" as="sourcePoint" />
            <mxPoint x="529" y="191" as="targetPoint" />
          </mxGeometry>
        </mxCell>
        <mxCell id="hbjcIojzbU_kD2nZdJwd-27" value="1" style="text;html=1;align=center;verticalAlign=middle;resizable=0;points=[];autosize=1;strokeColor=none;fillColor=none;" parent="1" vertex="1">
          <mxGeometry x="465" y="158" width="30" height="30" as="geometry" />
        </mxCell>
        <mxCell id="hbjcIojzbU_kD2nZdJwd-28" value="many" style="text;html=1;align=center;verticalAlign=middle;resizable=0;points=[];autosize=1;strokeColor=none;fillColor=none;" parent="1" vertex="1">
          <mxGeometry x="565" y="368" width="50" height="30" as="geometry" />
        </mxCell>
        <mxCell id="hbjcIojzbU_kD2nZdJwd-29" value="" style="endArrow=none;html=1;rounded=0;" parent="1" edge="1">
          <mxGeometry width="50" height="50" relative="1" as="geometry">
            <mxPoint x="800" y="440" as="sourcePoint" />
            <mxPoint x="800" y="150" as="targetPoint" />
          </mxGeometry>
        </mxCell>
        <mxCell id="hbjcIojzbU_kD2nZdJwd-30" value="" style="endArrow=none;html=1;rounded=0;" parent="1" edge="1">
          <mxGeometry width="50" height="50" relative="1" as="geometry">
            <mxPoint x="751" y="439" as="sourcePoint" />
            <mxPoint x="801" y="439" as="targetPoint" />
          </mxGeometry>
        </mxCell>
        <mxCell id="hbjcIojzbU_kD2nZdJwd-31" value="" style="endArrow=none;html=1;rounded=0;" parent="1" edge="1">
          <mxGeometry width="50" height="50" relative="1" as="geometry">
            <mxPoint x="742" y="149" as="sourcePoint" />
            <mxPoint x="800" y="149" as="targetPoint" />
          </mxGeometry>
        </mxCell>
        <mxCell id="hbjcIojzbU_kD2nZdJwd-32" value="1" style="text;html=1;align=center;verticalAlign=middle;resizable=0;points=[];autosize=1;strokeColor=none;fillColor=none;" parent="1" vertex="1">
          <mxGeometry x="755" y="128" width="30" height="30" as="geometry" />
        </mxCell>
        <mxCell id="hbjcIojzbU_kD2nZdJwd-33" value="many" style="text;html=1;align=center;verticalAlign=middle;resizable=0;points=[];autosize=1;strokeColor=none;fillColor=none;" parent="1" vertex="1">
          <mxGeometry x="735" y="418" width="50" height="30" as="geometry" />
        </mxCell>
        <mxCell id="hbjcIojzbU_kD2nZdJwd-35" value="" style="endArrow=none;html=1;rounded=0;" parent="1" edge="1">
          <mxGeometry width="50" height="50" relative="1" as="geometry">
            <mxPoint x="287" y="360" as="sourcePoint" />
            <mxPoint x="285" y="220" as="targetPoint" />
          </mxGeometry>
        </mxCell>
        <mxCell id="hbjcIojzbU_kD2nZdJwd-36" value="" style="endArrow=none;html=1;rounded=0;" parent="1" edge="1">
          <mxGeometry width="50" height="50" relative="1" as="geometry">
            <mxPoint x="216" y="362" as="sourcePoint" />
            <mxPoint x="286" y="360" as="targetPoint" />
          </mxGeometry>
        </mxCell>
        <mxCell id="hbjcIojzbU_kD2nZdJwd-37" value="" style="endArrow=none;html=1;rounded=0;entryX=0.014;entryY=0.6;entryDx=0;entryDy=0;entryPerimeter=0;" parent="1" edge="1">
          <mxGeometry width="50" height="50" relative="1" as="geometry">
            <mxPoint x="288" y="222" as="sourcePoint" />
            <mxPoint x="319.96000000000004" y="222" as="targetPoint" />
          </mxGeometry>
        </mxCell>
        <mxCell id="hbjcIojzbU_kD2nZdJwd-38" value="many" style="text;html=1;align=center;verticalAlign=middle;resizable=0;points=[];autosize=1;strokeColor=none;fillColor=none;" parent="1" vertex="1">
          <mxGeometry x="275" y="228" width="50" height="30" as="geometry" />
        </mxCell>
        <mxCell id="hbjcIojzbU_kD2nZdJwd-39" value="1" style="text;html=1;align=center;verticalAlign=middle;resizable=0;points=[];autosize=1;strokeColor=none;fillColor=none;" parent="1" vertex="1">
          <mxGeometry x="215" y="338" width="30" height="30" as="geometry" />
        </mxCell>
        <mxCell id="hbjcIojzbU_kD2nZdJwd-40" value="" style="endArrow=none;html=1;rounded=0;" parent="1" edge="1">
          <mxGeometry width="50" height="50" relative="1" as="geometry">
            <mxPoint x="285" y="504" as="sourcePoint" />
            <mxPoint x="285" y="430" as="targetPoint" />
          </mxGeometry>
        </mxCell>
        <mxCell id="hbjcIojzbU_kD2nZdJwd-41" value="" style="endArrow=none;html=1;rounded=0;" parent="1" edge="1">
          <mxGeometry width="50" height="50" relative="1" as="geometry">
            <mxPoint x="285" y="502" as="sourcePoint" />
            <mxPoint x="345" y="502" as="targetPoint" />
          </mxGeometry>
        </mxCell>
        <mxCell id="hbjcIojzbU_kD2nZdJwd-42" value="" style="endArrow=none;html=1;rounded=0;" parent="1" edge="1">
          <mxGeometry width="50" height="50" relative="1" as="geometry">
            <mxPoint x="216" y="432" as="sourcePoint" />
            <mxPoint x="286" y="430" as="targetPoint" />
          </mxGeometry>
        </mxCell>
        <mxCell id="hbjcIojzbU_kD2nZdJwd-43" value="many" style="text;html=1;align=center;verticalAlign=middle;resizable=0;points=[];autosize=1;strokeColor=none;fillColor=none;" parent="1" vertex="1">
          <mxGeometry x="305" y="478" width="50" height="30" as="geometry" />
        </mxCell>
        <mxCell id="hbjcIojzbU_kD2nZdJwd-44" value="1" style="text;html=1;align=center;verticalAlign=middle;resizable=0;points=[];autosize=1;strokeColor=none;fillColor=none;" parent="1" vertex="1">
          <mxGeometry x="225" y="410" width="30" height="30" as="geometry" />
        </mxCell>
        <mxCell id="XEWhlB9dFc28_H5Ar7BJ-2" value="&lt;b&gt;&lt;font style=&quot;font-size: 18px;&quot;&gt;&lt;span style=&quot;white-space: pre;&quot;&gt;&#x9;&lt;/span&gt;&lt;span style=&quot;white-space: pre;&quot;&gt;&#x9;&lt;/span&gt;&lt;span style=&quot;white-space: pre;&quot;&gt;&#x9;&lt;/span&gt;&lt;span style=&quot;white-space: pre;&quot;&gt;&#x9;&lt;/span&gt;&lt;span style=&quot;white-space: pre;&quot;&gt;&#x9;&lt;/span&gt;&lt;span style=&quot;white-space: pre;&quot;&gt;&#x9;&lt;/span&gt;&lt;span style=&quot;white-space: pre;&quot;&gt;&#x9;&lt;/span&gt;LOGICAL MODEL FOR A SMALL BOOKSTORE&lt;/font&gt;&lt;/b&gt;" style="text;html=1;align=center;verticalAlign=middle;resizable=0;points=[];autosize=1;strokeColor=none;fillColor=none;" vertex="1" parent="1">
          <mxGeometry x="-80" y="3" width="700" height="40" as="geometry" />
        </mxCell>
      </root>
    </mxGraphModel>
  </diagram>
  <diagram id="SFr2mSR0zJupd1F8l7qT" name="Page-2">
    <mxGraphModel dx="1705" dy="464" grid="1" gridSize="10" guides="1" tooltips="1" connect="1" arrows="1" fold="1" page="1" pageScale="1" pageWidth="850" pageHeight="1100" math="0" shadow="0">
      <root>
        <mxCell id="0" />
        <mxCell id="1" parent="0" />
        <mxCell id="EG_0ECrjitr5VLX6kkaG-1" value="SALES&lt;div&gt;sales_id&lt;/div&gt;&lt;div&gt;order_id&lt;/div&gt;&lt;div&gt;quantity&lt;/div&gt;&lt;div&gt;total_price&lt;/div&gt;" style="whiteSpace=wrap;html=1;aspect=fixed;" vertex="1" parent="1">
          <mxGeometry x="601" y="333" width="149" height="149" as="geometry" />
        </mxCell>
        <mxCell id="EG_0ECrjitr5VLX6kkaG-2" value="CUSTOMER&lt;div&gt;customer_id&lt;/div&gt;&lt;div&gt;fist_name&lt;/div&gt;&lt;div&gt;email&lt;/div&gt;&lt;div&gt;phone_number&lt;/div&gt;&lt;div&gt;address_id&lt;/div&gt;" style="whiteSpace=wrap;html=1;aspect=fixed;" vertex="1" parent="1">
          <mxGeometry x="80" y="70" width="140" height="140" as="geometry" />
        </mxCell>
        <mxCell id="EG_0ECrjitr5VLX6kkaG-3" value="DATE&lt;div&gt;date_id&lt;/div&gt;&lt;div&gt;shift_date&lt;/div&gt;&lt;div&gt;year&lt;/div&gt;&lt;div&gt;month&lt;/div&gt;&lt;div&gt;day&lt;/div&gt;&lt;div&gt;quater&lt;/div&gt;" style="whiteSpace=wrap;html=1;aspect=fixed;" vertex="1" parent="1">
          <mxGeometry x="345" y="446" width="140" height="140" as="geometry" />
        </mxCell>
        <mxCell id="EG_0ECrjitr5VLX6kkaG-4" value="EMPLOYEE&lt;div&gt;employee_id&lt;/div&gt;&lt;div&gt;first_name&lt;/div&gt;&lt;div&gt;last_name&lt;/div&gt;&lt;div&gt;position&lt;/div&gt;&lt;div&gt;salary&lt;/div&gt;&lt;div&gt;hire_date&lt;/div&gt;" style="whiteSpace=wrap;html=1;aspect=fixed;" vertex="1" parent="1">
          <mxGeometry x="76" y="318" width="140" height="140" as="geometry" />
        </mxCell>
        <mxCell id="EG_0ECrjitr5VLX6kkaG-5" value="ORDER&lt;div&gt;order_id&lt;/div&gt;&lt;div&gt;customer_id&lt;/div&gt;&lt;div&gt;employee_id&lt;/div&gt;&lt;div&gt;total_amount&lt;/div&gt;" style="whiteSpace=wrap;html=1;aspect=fixed;" vertex="1" parent="1">
          <mxGeometry x="320" y="140" width="140" height="140" as="geometry" />
        </mxCell>
        <mxCell id="EG_0ECrjitr5VLX6kkaG-6" value="&lt;div&gt;BOOK&lt;/div&gt;&lt;div&gt;book_id&lt;/div&gt;&lt;div&gt;title&lt;/div&gt;&lt;div&gt;genre&lt;/div&gt;&lt;div&gt;price&lt;/div&gt;&lt;div&gt;stock_quantity&lt;/div&gt;&lt;div&gt;publisher&lt;/div&gt;" style="whiteSpace=wrap;html=1;aspect=fixed;" vertex="1" parent="1">
          <mxGeometry x="601" y="66" width="140" height="140" as="geometry" />
        </mxCell>
        <mxCell id="EG_0ECrjitr5VLX6kkaG-7" value="" style="endArrow=none;html=1;rounded=0;" edge="1" parent="1">
          <mxGeometry width="50" height="50" relative="1" as="geometry">
            <mxPoint x="222" y="116" as="sourcePoint" />
            <mxPoint x="250" y="116" as="targetPoint" />
          </mxGeometry>
        </mxCell>
        <mxCell id="EG_0ECrjitr5VLX6kkaG-8" value="" style="endArrow=none;html=1;rounded=0;" edge="1" parent="1">
          <mxGeometry width="50" height="50" relative="1" as="geometry">
            <mxPoint x="250" y="211" as="sourcePoint" />
            <mxPoint x="324" y="210" as="targetPoint" />
          </mxGeometry>
        </mxCell>
        <mxCell id="EG_0ECrjitr5VLX6kkaG-9" value="" style="endArrow=none;html=1;rounded=0;" edge="1" parent="1">
          <mxGeometry width="50" height="50" relative="1" as="geometry">
            <mxPoint x="251" y="212" as="sourcePoint" />
            <mxPoint x="251" y="117" as="targetPoint" />
          </mxGeometry>
        </mxCell>
        <mxCell id="EG_0ECrjitr5VLX6kkaG-10" value="1" style="text;html=1;align=center;verticalAlign=middle;resizable=0;points=[];autosize=1;strokeColor=none;fillColor=none;" vertex="1" parent="1">
          <mxGeometry x="215" y="88" width="30" height="30" as="geometry" />
        </mxCell>
        <mxCell id="EG_0ECrjitr5VLX6kkaG-11" value="many" style="text;html=1;align=center;verticalAlign=middle;resizable=0;points=[];autosize=1;strokeColor=none;fillColor=none;" vertex="1" parent="1">
          <mxGeometry x="295" y="188" width="50" height="30" as="geometry" />
        </mxCell>
        <mxCell id="EG_0ECrjitr5VLX6kkaG-12" value="" style="endArrow=none;html=1;rounded=0;" edge="1" parent="1">
          <mxGeometry width="50" height="50" relative="1" as="geometry">
            <mxPoint x="530" y="406" as="sourcePoint" />
            <mxPoint x="530" y="190" as="targetPoint" />
          </mxGeometry>
        </mxCell>
        <mxCell id="EG_0ECrjitr5VLX6kkaG-13" value="" style="endArrow=none;html=1;rounded=0;" edge="1" parent="1">
          <mxGeometry width="50" height="50" relative="1" as="geometry">
            <mxPoint x="530" y="406" as="sourcePoint" />
            <mxPoint x="600" y="406" as="targetPoint" />
          </mxGeometry>
        </mxCell>
        <mxCell id="EG_0ECrjitr5VLX6kkaG-14" value="" style="endArrow=none;html=1;rounded=0;" edge="1" parent="1">
          <mxGeometry width="50" height="50" relative="1" as="geometry">
            <mxPoint x="460" y="191" as="sourcePoint" />
            <mxPoint x="529" y="191" as="targetPoint" />
          </mxGeometry>
        </mxCell>
        <mxCell id="EG_0ECrjitr5VLX6kkaG-15" value="1" style="text;html=1;align=center;verticalAlign=middle;resizable=0;points=[];autosize=1;strokeColor=none;fillColor=none;" vertex="1" parent="1">
          <mxGeometry x="465" y="158" width="30" height="30" as="geometry" />
        </mxCell>
        <mxCell id="EG_0ECrjitr5VLX6kkaG-16" value="many" style="text;html=1;align=center;verticalAlign=middle;resizable=0;points=[];autosize=1;strokeColor=none;fillColor=none;" vertex="1" parent="1">
          <mxGeometry x="565" y="368" width="50" height="30" as="geometry" />
        </mxCell>
        <mxCell id="EG_0ECrjitr5VLX6kkaG-17" value="" style="endArrow=none;html=1;rounded=0;" edge="1" parent="1">
          <mxGeometry width="50" height="50" relative="1" as="geometry">
            <mxPoint x="800" y="440" as="sourcePoint" />
            <mxPoint x="800" y="150" as="targetPoint" />
          </mxGeometry>
        </mxCell>
        <mxCell id="EG_0ECrjitr5VLX6kkaG-18" value="" style="endArrow=none;html=1;rounded=0;" edge="1" parent="1">
          <mxGeometry width="50" height="50" relative="1" as="geometry">
            <mxPoint x="751" y="439" as="sourcePoint" />
            <mxPoint x="801" y="439" as="targetPoint" />
          </mxGeometry>
        </mxCell>
        <mxCell id="EG_0ECrjitr5VLX6kkaG-19" value="" style="endArrow=none;html=1;rounded=0;" edge="1" parent="1">
          <mxGeometry width="50" height="50" relative="1" as="geometry">
            <mxPoint x="742" y="149" as="sourcePoint" />
            <mxPoint x="800" y="149" as="targetPoint" />
          </mxGeometry>
        </mxCell>
        <mxCell id="EG_0ECrjitr5VLX6kkaG-20" value="1" style="text;html=1;align=center;verticalAlign=middle;resizable=0;points=[];autosize=1;strokeColor=none;fillColor=none;" vertex="1" parent="1">
          <mxGeometry x="755" y="128" width="30" height="30" as="geometry" />
        </mxCell>
        <mxCell id="EG_0ECrjitr5VLX6kkaG-21" value="many" style="text;html=1;align=center;verticalAlign=middle;resizable=0;points=[];autosize=1;strokeColor=none;fillColor=none;" vertex="1" parent="1">
          <mxGeometry x="735" y="418" width="50" height="30" as="geometry" />
        </mxCell>
        <mxCell id="EG_0ECrjitr5VLX6kkaG-22" value="" style="endArrow=none;html=1;rounded=0;" edge="1" parent="1">
          <mxGeometry width="50" height="50" relative="1" as="geometry">
            <mxPoint x="287" y="360" as="sourcePoint" />
            <mxPoint x="285" y="220" as="targetPoint" />
          </mxGeometry>
        </mxCell>
        <mxCell id="EG_0ECrjitr5VLX6kkaG-23" value="" style="endArrow=none;html=1;rounded=0;" edge="1" parent="1">
          <mxGeometry width="50" height="50" relative="1" as="geometry">
            <mxPoint x="216" y="362" as="sourcePoint" />
            <mxPoint x="286" y="360" as="targetPoint" />
          </mxGeometry>
        </mxCell>
        <mxCell id="EG_0ECrjitr5VLX6kkaG-24" value="" style="endArrow=none;html=1;rounded=0;entryX=0.014;entryY=0.6;entryDx=0;entryDy=0;entryPerimeter=0;" edge="1" parent="1">
          <mxGeometry width="50" height="50" relative="1" as="geometry">
            <mxPoint x="288" y="222" as="sourcePoint" />
            <mxPoint x="319.96000000000004" y="222" as="targetPoint" />
          </mxGeometry>
        </mxCell>
        <mxCell id="EG_0ECrjitr5VLX6kkaG-25" value="many" style="text;html=1;align=center;verticalAlign=middle;resizable=0;points=[];autosize=1;strokeColor=none;fillColor=none;" vertex="1" parent="1">
          <mxGeometry x="275" y="228" width="50" height="30" as="geometry" />
        </mxCell>
        <mxCell id="EG_0ECrjitr5VLX6kkaG-26" value="1" style="text;html=1;align=center;verticalAlign=middle;resizable=0;points=[];autosize=1;strokeColor=none;fillColor=none;" vertex="1" parent="1">
          <mxGeometry x="215" y="338" width="30" height="30" as="geometry" />
        </mxCell>
        <mxCell id="EG_0ECrjitr5VLX6kkaG-27" value="" style="endArrow=none;html=1;rounded=0;" edge="1" parent="1">
          <mxGeometry width="50" height="50" relative="1" as="geometry">
            <mxPoint x="285" y="504" as="sourcePoint" />
            <mxPoint x="285" y="430" as="targetPoint" />
          </mxGeometry>
        </mxCell>
        <mxCell id="EG_0ECrjitr5VLX6kkaG-28" value="" style="endArrow=none;html=1;rounded=0;" edge="1" parent="1">
          <mxGeometry width="50" height="50" relative="1" as="geometry">
            <mxPoint x="285" y="502" as="sourcePoint" />
            <mxPoint x="345" y="502" as="targetPoint" />
          </mxGeometry>
        </mxCell>
        <mxCell id="EG_0ECrjitr5VLX6kkaG-29" value="" style="endArrow=none;html=1;rounded=0;" edge="1" parent="1">
          <mxGeometry width="50" height="50" relative="1" as="geometry">
            <mxPoint x="216" y="432" as="sourcePoint" />
            <mxPoint x="286" y="430" as="targetPoint" />
          </mxGeometry>
        </mxCell>
        <mxCell id="EG_0ECrjitr5VLX6kkaG-30" value="many" style="text;html=1;align=center;verticalAlign=middle;resizable=0;points=[];autosize=1;strokeColor=none;fillColor=none;" vertex="1" parent="1">
          <mxGeometry x="305" y="478" width="50" height="30" as="geometry" />
        </mxCell>
        <mxCell id="EG_0ECrjitr5VLX6kkaG-31" value="1" style="text;html=1;align=center;verticalAlign=middle;resizable=0;points=[];autosize=1;strokeColor=none;fillColor=none;" vertex="1" parent="1">
          <mxGeometry x="225" y="410" width="30" height="30" as="geometry" />
        </mxCell>
        <mxCell id="EG_0ECrjitr5VLX6kkaG-32" value="&lt;b&gt;&lt;font style=&quot;font-size: 18px;&quot;&gt;&lt;span style=&quot;white-space: pre;&quot;&gt;&#x9;&lt;/span&gt;&lt;span style=&quot;white-space: pre;&quot;&gt;&#x9;&lt;/span&gt;&lt;span style=&quot;white-space: pre;&quot;&gt;&#x9;&lt;/span&gt;&lt;span style=&quot;white-space: pre;&quot;&gt;&#x9;&lt;/span&gt;&lt;span style=&quot;white-space: pre;&quot;&gt;&#x9;&lt;/span&gt;&lt;span style=&quot;white-space: pre;&quot;&gt;&#x9;&lt;/span&gt;&lt;span style=&quot;white-space: pre;&quot;&gt;&#x9;&lt;/span&gt;LOGICAL MODEL FOR A SMALL BOOKSTORE&lt;/font&gt;&lt;/b&gt;" style="text;html=1;align=center;verticalAlign=middle;resizable=0;points=[];autosize=1;strokeColor=none;fillColor=none;" vertex="1" parent="1">
          <mxGeometry x="-80" y="3" width="700" height="40" as="geometry" />
        </mxCell>
        <mxCell id="EG_0ECrjitr5VLX6kkaG-37" value="EMPLOYEE_SHIFT&amp;nbsp;&lt;div&gt;Shift_id&lt;/div&gt;&lt;div&gt;Employee_id&lt;/div&gt;&lt;div&gt;Shift_type: &#39;Morining&#39; or &#39;Evening&#39;&lt;/div&gt;&lt;div&gt;Shift_date&lt;/div&gt;" style="whiteSpace=wrap;html=1;aspect=fixed;" vertex="1" parent="1">
          <mxGeometry x="180" y="620" width="133" height="133" as="geometry" />
        </mxCell>
        <mxCell id="EG_0ECrjitr5VLX6kkaG-38" value="" style="endArrow=none;html=1;rounded=0;" edge="1" parent="1">
          <mxGeometry width="50" height="50" relative="1" as="geometry">
            <mxPoint x="44" y="675" as="sourcePoint" />
            <mxPoint x="44" y="360" as="targetPoint" />
          </mxGeometry>
        </mxCell>
        <mxCell id="EG_0ECrjitr5VLX6kkaG-39" value="" style="endArrow=none;html=1;rounded=0;entryX=-0.008;entryY=0.391;entryDx=0;entryDy=0;entryPerimeter=0;" edge="1" parent="1">
          <mxGeometry width="50" height="50" relative="1" as="geometry">
            <mxPoint x="44" y="674" as="sourcePoint" />
            <mxPoint x="178.93599999999992" y="673.0029999999999" as="targetPoint" />
          </mxGeometry>
        </mxCell>
        <mxCell id="EG_0ECrjitr5VLX6kkaG-40" value="" style="endArrow=none;html=1;rounded=0;" edge="1" parent="1">
          <mxGeometry width="50" height="50" relative="1" as="geometry">
            <mxPoint x="74" y="359" as="sourcePoint" />
            <mxPoint x="45" y="359" as="targetPoint" />
          </mxGeometry>
        </mxCell>
      </root>
    </mxGraphModel>
  </diagram>
</mxfile>
